<mxfile host="app.diagrams.net" modified="2023-12-25T13:12:19.211Z" agent="Mozilla/5.0 (Windows NT 10.0; Win64; x64) AppleWebKit/537.36 (KHTML, like Gecko) Chrome/120.0.0.0 Safari/537.36" etag="GmrJg3WK7Mt6kt7srraI" version="22.1.11" type="device">
  <diagram name="‫עמוד-1‬" id="KrWxdoEtjhvakx4lHZiH">
    <mxGraphModel dx="3221" dy="2363" grid="1" gridSize="10" guides="1" tooltips="1" connect="1" arrows="1" fold="1" page="1" pageScale="1" pageWidth="827" pageHeight="1169" math="0" shadow="0">
      <root>
        <mxCell id="0" />
        <mxCell id="1" parent="0" />
        <mxCell id="1cxijmNsslINxVYldG_D-7" value="" style="ellipse;shape=cloud;whiteSpace=wrap;html=1;" vertex="1" parent="1">
          <mxGeometry x="-310" y="-90" width="2000" height="1770" as="geometry" />
        </mxCell>
        <mxCell id="1cxijmNsslINxVYldG_D-10" style="edgeStyle=orthogonalEdgeStyle;rounded=0;orthogonalLoop=1;jettySize=auto;html=1;startArrow=classic;startFill=1;" edge="1" parent="1" source="1cxijmNsslINxVYldG_D-1" target="1cxijmNsslINxVYldG_D-3">
          <mxGeometry relative="1" as="geometry" />
        </mxCell>
        <mxCell id="1cxijmNsslINxVYldG_D-18" style="rounded=0;orthogonalLoop=1;jettySize=auto;html=1;startArrow=classic;startFill=1;" edge="1" parent="1" source="1cxijmNsslINxVYldG_D-1" target="1cxijmNsslINxVYldG_D-6">
          <mxGeometry relative="1" as="geometry" />
        </mxCell>
        <mxCell id="1cxijmNsslINxVYldG_D-1" value="" style="image;points=[];aspect=fixed;html=1;align=center;shadow=0;dashed=0;image=img/lib/allied_telesis/computer_and_terminals/Personal_Computer.svg;" vertex="1" parent="1">
          <mxGeometry x="330" y="710" width="163.3" height="221.32" as="geometry" />
        </mxCell>
        <mxCell id="1cxijmNsslINxVYldG_D-9" style="edgeStyle=orthogonalEdgeStyle;rounded=0;orthogonalLoop=1;jettySize=auto;html=1;startArrow=classic;startFill=1;" edge="1" parent="1" source="1cxijmNsslINxVYldG_D-2" target="1cxijmNsslINxVYldG_D-1">
          <mxGeometry relative="1" as="geometry" />
        </mxCell>
        <mxCell id="1cxijmNsslINxVYldG_D-2" value="" style="image;points=[];aspect=fixed;html=1;align=center;shadow=0;dashed=0;image=img/lib/allied_telesis/computer_and_terminals/Personal_Computer.svg;" vertex="1" parent="1">
          <mxGeometry x="20" y="710" width="163.3" height="221.32" as="geometry" />
        </mxCell>
        <mxCell id="1cxijmNsslINxVYldG_D-11" style="edgeStyle=orthogonalEdgeStyle;rounded=0;orthogonalLoop=1;jettySize=auto;html=1;startArrow=classic;startFill=1;" edge="1" parent="1" source="1cxijmNsslINxVYldG_D-3" target="1cxijmNsslINxVYldG_D-4">
          <mxGeometry relative="1" as="geometry" />
        </mxCell>
        <mxCell id="1cxijmNsslINxVYldG_D-3" value="" style="image;points=[];aspect=fixed;html=1;align=center;shadow=0;dashed=0;image=img/lib/allied_telesis/computer_and_terminals/Personal_Computer.svg;" vertex="1" parent="1">
          <mxGeometry x="640" y="710" width="163.3" height="221.32" as="geometry" />
        </mxCell>
        <mxCell id="1cxijmNsslINxVYldG_D-12" style="edgeStyle=orthogonalEdgeStyle;rounded=0;orthogonalLoop=1;jettySize=auto;html=1;startArrow=classic;startFill=1;" edge="1" parent="1" source="1cxijmNsslINxVYldG_D-4" target="1cxijmNsslINxVYldG_D-5">
          <mxGeometry relative="1" as="geometry" />
        </mxCell>
        <mxCell id="1cxijmNsslINxVYldG_D-4" value="" style="image;points=[];aspect=fixed;html=1;align=center;shadow=0;dashed=0;image=img/lib/allied_telesis/computer_and_terminals/Personal_Computer.svg;" vertex="1" parent="1">
          <mxGeometry x="950" y="710" width="163.3" height="221.32" as="geometry" />
        </mxCell>
        <mxCell id="1cxijmNsslINxVYldG_D-13" style="rounded=0;orthogonalLoop=1;jettySize=auto;html=1;entryX=1;entryY=0.5;entryDx=0;entryDy=0;strokeColor=default;startArrow=classic;startFill=1;" edge="1" parent="1" source="1cxijmNsslINxVYldG_D-5" target="1cxijmNsslINxVYldG_D-6">
          <mxGeometry relative="1" as="geometry" />
        </mxCell>
        <mxCell id="1cxijmNsslINxVYldG_D-5" value="" style="image;points=[];aspect=fixed;html=1;align=center;shadow=0;dashed=0;image=img/lib/allied_telesis/computer_and_terminals/Personal_Computer.svg;" vertex="1" parent="1">
          <mxGeometry x="1270" y="710" width="163.3" height="221.32" as="geometry" />
        </mxCell>
        <mxCell id="1cxijmNsslINxVYldG_D-6" value="" style="image;aspect=fixed;perimeter=ellipsePerimeter;html=1;align=center;shadow=0;dashed=0;spacingTop=3;image=img/lib/active_directory/database_server.svg;" vertex="1" parent="1">
          <mxGeometry x="399.99999999999994" y="110" width="221.4" height="270" as="geometry" />
        </mxCell>
        <mxCell id="1cxijmNsslINxVYldG_D-14" style="rounded=0;orthogonalLoop=1;jettySize=auto;html=1;entryX=1.021;entryY=0.998;entryDx=0;entryDy=0;entryPerimeter=0;startArrow=classic;startFill=1;" edge="1" parent="1" source="1cxijmNsslINxVYldG_D-4" target="1cxijmNsslINxVYldG_D-6">
          <mxGeometry relative="1" as="geometry" />
        </mxCell>
        <mxCell id="1cxijmNsslINxVYldG_D-17" style="rounded=0;orthogonalLoop=1;jettySize=auto;html=1;entryX=0.784;entryY=1.009;entryDx=0;entryDy=0;entryPerimeter=0;startArrow=classic;startFill=1;" edge="1" parent="1" source="1cxijmNsslINxVYldG_D-3" target="1cxijmNsslINxVYldG_D-6">
          <mxGeometry relative="1" as="geometry" />
        </mxCell>
        <mxCell id="1cxijmNsslINxVYldG_D-19" style="rounded=0;orthogonalLoop=1;jettySize=auto;html=1;entryX=-0.029;entryY=0.832;entryDx=0;entryDy=0;entryPerimeter=0;startArrow=classic;startFill=1;" edge="1" parent="1" source="1cxijmNsslINxVYldG_D-2" target="1cxijmNsslINxVYldG_D-6">
          <mxGeometry relative="1" as="geometry" />
        </mxCell>
        <mxCell id="1cxijmNsslINxVYldG_D-20" style="edgeStyle=orthogonalEdgeStyle;rounded=0;orthogonalLoop=1;jettySize=auto;html=1;entryX=0.53;entryY=1.008;entryDx=0;entryDy=0;entryPerimeter=0;startArrow=classic;startFill=1;" edge="1" parent="1" source="1cxijmNsslINxVYldG_D-2" target="1cxijmNsslINxVYldG_D-3">
          <mxGeometry relative="1" as="geometry">
            <Array as="points">
              <mxPoint x="102" y="1160" />
              <mxPoint x="727" y="1160" />
            </Array>
          </mxGeometry>
        </mxCell>
        <mxCell id="1cxijmNsslINxVYldG_D-21" style="edgeStyle=orthogonalEdgeStyle;rounded=0;orthogonalLoop=1;jettySize=auto;html=1;entryX=0.551;entryY=1.001;entryDx=0;entryDy=0;entryPerimeter=0;startArrow=classic;startFill=1;" edge="1" parent="1" source="1cxijmNsslINxVYldG_D-2" target="1cxijmNsslINxVYldG_D-4">
          <mxGeometry relative="1" as="geometry">
            <Array as="points">
              <mxPoint x="90" y="1190" />
              <mxPoint x="1040" y="1190" />
            </Array>
          </mxGeometry>
        </mxCell>
        <mxCell id="1cxijmNsslINxVYldG_D-22" style="edgeStyle=orthogonalEdgeStyle;rounded=0;orthogonalLoop=1;jettySize=auto;html=1;entryX=0.34;entryY=0.994;entryDx=0;entryDy=0;entryPerimeter=0;startArrow=classic;startFill=1;" edge="1" parent="1" source="1cxijmNsslINxVYldG_D-5" target="1cxijmNsslINxVYldG_D-2">
          <mxGeometry relative="1" as="geometry">
            <Array as="points">
              <mxPoint x="1380" y="1220" />
              <mxPoint x="76" y="1220" />
            </Array>
          </mxGeometry>
        </mxCell>
        <mxCell id="1cxijmNsslINxVYldG_D-23" style="edgeStyle=orthogonalEdgeStyle;rounded=0;orthogonalLoop=1;jettySize=auto;html=1;entryX=0.349;entryY=1.008;entryDx=0;entryDy=0;entryPerimeter=0;startArrow=classic;startFill=1;" edge="1" parent="1" source="1cxijmNsslINxVYldG_D-1" target="1cxijmNsslINxVYldG_D-4">
          <mxGeometry relative="1" as="geometry">
            <Array as="points">
              <mxPoint x="412" y="1110" />
              <mxPoint x="1007" y="1110" />
            </Array>
          </mxGeometry>
        </mxCell>
        <mxCell id="1cxijmNsslINxVYldG_D-24" style="edgeStyle=orthogonalEdgeStyle;rounded=0;orthogonalLoop=1;jettySize=auto;html=1;entryX=0.5;entryY=0.994;entryDx=0;entryDy=0;entryPerimeter=0;startArrow=classic;startFill=1;" edge="1" parent="1" source="1cxijmNsslINxVYldG_D-1" target="1cxijmNsslINxVYldG_D-5">
          <mxGeometry relative="1" as="geometry">
            <Array as="points">
              <mxPoint x="390" y="1130" />
              <mxPoint x="1352" y="1130" />
            </Array>
          </mxGeometry>
        </mxCell>
        <mxCell id="1cxijmNsslINxVYldG_D-25" style="edgeStyle=orthogonalEdgeStyle;rounded=0;orthogonalLoop=1;jettySize=auto;html=1;entryX=0.318;entryY=1.028;entryDx=0;entryDy=0;entryPerimeter=0;startArrow=classic;startFill=1;" edge="1" parent="1" source="1cxijmNsslINxVYldG_D-3" target="1cxijmNsslINxVYldG_D-5">
          <mxGeometry relative="1" as="geometry">
            <Array as="points">
              <mxPoint x="750" y="1080" />
              <mxPoint x="1322" y="1080" />
            </Array>
          </mxGeometry>
        </mxCell>
      </root>
    </mxGraphModel>
  </diagram>
</mxfile>
